<mxfile host="drawio-plugin" modified="2023-07-01T09:33:13.447Z" agent="5.0 (Windows NT 6.2; Win64; x64) AppleWebKit/537.36 (KHTML, like Gecko) Chrome/104.0.5112.102 Safari/537.36" etag="-S8hqHFSB8Sl_I4_5hj5" version="20.5.3" type="embed" pages="3"><diagram id="8QYswFCYHAxbA2caHM5U" name="ERM"><mxGraphModel dx="336" dy="162" grid="1" gridSize="10" guides="1" tooltips="1" connect="1" arrows="1" fold="1" page="1" pageScale="1" pageWidth="1169" pageHeight="827" math="0" shadow="0"><root><mxCell id="0"/><mxCell id="1" parent="0"/><mxCell id="2" value="AppUser" style="swimlane;fontStyle=0;childLayout=stackLayout;horizontal=1;startSize=30;horizontalStack=0;resizeParent=1;resizeParentMax=0;resizeLast=0;collapsible=1;marginBottom=0;whiteSpace=wrap;html=1;rounded=1;swimlaneLine=1;glass=0;shadow=0;fillColor=#1ba1e2;strokeColor=#006EAF;swimlaneFillColor=none;align=center;fontColor=#ffffff;fontSize=16;" parent="1" vertex="1"><mxGeometry x="40" y="70" width="280" height="360" as="geometry"><mxRectangle x="190" y="100" width="70" height="30" as="alternateBounds"/></mxGeometry></mxCell><mxCell id="3" value="id: String&lt;span style=&quot;white-space: pre; font-size: 16px;&quot;&gt;&lt;span style=&quot;white-space: pre; font-size: 16px;&quot;&gt;&#9;&lt;/span&gt;&lt;/span&gt;" style="text;strokeColor=none;fillColor=none;align=left;verticalAlign=middle;spacingLeft=4;spacingRight=4;overflow=hidden;points=[[0,0.5],[1,0.5]];portConstraint=eastwest;rotatable=0;whiteSpace=wrap;html=1;fontSize=16;" parent="2" vertex="1"><mxGeometry y="30" width="280" height="30" as="geometry"/></mxCell><mxCell id="4" value="email: String" style="text;strokeColor=none;fillColor=none;align=left;verticalAlign=middle;spacingLeft=4;spacingRight=4;overflow=hidden;points=[[0,0.5],[1,0.5]];portConstraint=eastwest;rotatable=0;whiteSpace=wrap;html=1;fontSize=16;" parent="2" vertex="1"><mxGeometry y="60" width="280" height="30" as="geometry"/></mxCell><mxCell id="5" value="password: String" style="text;strokeColor=none;fillColor=none;align=left;verticalAlign=middle;spacingLeft=4;spacingRight=4;overflow=hidden;points=[[0,0.5],[1,0.5]];portConstraint=eastwest;rotatable=0;whiteSpace=wrap;html=1;fontSize=16;" parent="2" vertex="1"><mxGeometry y="90" width="280" height="30" as="geometry"/></mxCell><mxCell id="21" value="firstName: String" style="text;strokeColor=none;fillColor=none;align=left;verticalAlign=middle;spacingLeft=4;spacingRight=4;overflow=hidden;points=[[0,0.5],[1,0.5]];portConstraint=eastwest;rotatable=0;whiteSpace=wrap;html=1;fontSize=16;" parent="2" vertex="1"><mxGeometry y="120" width="280" height="30" as="geometry"/></mxCell><mxCell id="22" value="lastName: String" style="text;strokeColor=none;fillColor=none;align=left;verticalAlign=middle;spacingLeft=4;spacingRight=4;overflow=hidden;points=[[0,0.5],[1,0.5]];portConstraint=eastwest;rotatable=0;whiteSpace=wrap;html=1;fontSize=16;" parent="2" vertex="1"><mxGeometry y="150" width="280" height="30" as="geometry"/></mxCell><mxCell id="25" value="locked: Boolean" style="text;strokeColor=none;fillColor=none;align=left;verticalAlign=middle;spacingLeft=4;spacingRight=4;overflow=hidden;points=[[0,0.5],[1,0.5]];portConstraint=eastwest;rotatable=0;whiteSpace=wrap;html=1;fontSize=16;" parent="2" vertex="1"><mxGeometry y="180" width="280" height="30" as="geometry"/></mxCell><mxCell id="24" value="enabled: Boolean" style="text;strokeColor=none;fillColor=none;align=left;verticalAlign=middle;spacingLeft=4;spacingRight=4;overflow=hidden;points=[[0,0.5],[1,0.5]];portConstraint=eastwest;rotatable=0;whiteSpace=wrap;html=1;fontSize=16;" parent="2" vertex="1"><mxGeometry y="210" width="280" height="30" as="geometry"/></mxCell><mxCell id="29" value="details: String" style="text;strokeColor=none;fillColor=none;align=left;verticalAlign=middle;spacingLeft=4;spacingRight=4;overflow=hidden;points=[[0,0.5],[1,0.5]];portConstraint=eastwest;rotatable=0;whiteSpace=wrap;html=1;fontSize=16;" parent="2" vertex="1"><mxGeometry y="240" width="280" height="30" as="geometry"/></mxCell><mxCell id="23" value="role: Role" style="text;strokeColor=none;fillColor=none;align=left;verticalAlign=middle;spacingLeft=4;spacingRight=4;overflow=hidden;points=[[0,0.5],[1,0.5]];portConstraint=eastwest;rotatable=0;whiteSpace=wrap;html=1;fontSize=16;" parent="2" vertex="1"><mxGeometry y="270" width="280" height="30" as="geometry"/></mxCell><mxCell id="116" value="skills: List&amp;lt;AppUserSkill&amp;gt;" style="text;strokeColor=none;fillColor=none;align=left;verticalAlign=middle;spacingLeft=4;spacingRight=4;overflow=hidden;points=[[0,0.5],[1,0.5]];portConstraint=eastwest;rotatable=0;whiteSpace=wrap;html=1;fontSize=16;" vertex="1" parent="2"><mxGeometry y="300" width="280" height="30" as="geometry"/></mxCell><mxCell id="117" value="jobApplications: List&amp;lt;JobApplication&amp;gt;" style="text;strokeColor=none;fillColor=none;align=left;verticalAlign=middle;spacingLeft=4;spacingRight=4;overflow=hidden;points=[[0,0.5],[1,0.5]];portConstraint=eastwest;rotatable=0;whiteSpace=wrap;html=1;fontSize=16;" vertex="1" parent="2"><mxGeometry y="330" width="280" height="30" as="geometry"/></mxCell><mxCell id="6" value="Skill" style="swimlane;fontStyle=0;childLayout=stackLayout;horizontal=1;startSize=30;horizontalStack=0;resizeParent=1;resizeParentMax=0;resizeLast=0;collapsible=1;marginBottom=0;whiteSpace=wrap;html=1;fillColor=#1ba1e2;swimlaneFillColor=none;rounded=1;glass=0;shadow=0;fontColor=#ffffff;strokeColor=#006EAF;fontSize=16;" parent="1" vertex="1"><mxGeometry x="890" y="100" width="140" height="90" as="geometry"/></mxCell><mxCell id="7" value="id: Long" style="text;strokeColor=none;fillColor=none;align=left;verticalAlign=middle;spacingLeft=4;spacingRight=4;overflow=hidden;points=[[0,0.5],[1,0.5]];portConstraint=eastwest;rotatable=0;whiteSpace=wrap;html=1;fontSize=16;" parent="6" vertex="1"><mxGeometry y="30" width="140" height="30" as="geometry"/></mxCell><mxCell id="8" value="name: String" style="text;strokeColor=none;fillColor=none;align=left;verticalAlign=middle;spacingLeft=4;spacingRight=4;overflow=hidden;points=[[0,0.5],[1,0.5]];portConstraint=eastwest;rotatable=0;whiteSpace=wrap;html=1;fontSize=16;" parent="6" vertex="1"><mxGeometry y="60" width="140" height="30" as="geometry"/></mxCell><mxCell id="10" value="Company" style="swimlane;fontStyle=0;childLayout=stackLayout;horizontal=1;startSize=30;horizontalStack=0;resizeParent=1;resizeParentMax=0;resizeLast=0;collapsible=1;marginBottom=0;whiteSpace=wrap;html=1;rounded=1;fillColor=#1ba1e2;fontColor=#ffffff;strokeColor=#006EAF;fontSize=16;" parent="1" vertex="1"><mxGeometry x="90" y="600" width="190" height="180" as="geometry"/></mxCell><mxCell id="11" value="id: String" style="text;strokeColor=none;fillColor=none;align=left;verticalAlign=middle;spacingLeft=4;spacingRight=4;overflow=hidden;points=[[0,0.5],[1,0.5]];portConstraint=eastwest;rotatable=0;whiteSpace=wrap;html=1;fontSize=16;" parent="10" vertex="1"><mxGeometry y="30" width="190" height="30" as="geometry"/></mxCell><mxCell id="12" value="name: String" style="text;strokeColor=none;fillColor=none;align=left;verticalAlign=middle;spacingLeft=4;spacingRight=4;overflow=hidden;points=[[0,0.5],[1,0.5]];portConstraint=eastwest;rotatable=0;whiteSpace=wrap;html=1;fontSize=16;" parent="10" vertex="1"><mxGeometry y="60" width="190" height="30" as="geometry"/></mxCell><mxCell id="13" value="description: String" style="text;strokeColor=none;fillColor=none;align=left;verticalAlign=middle;spacingLeft=4;spacingRight=4;overflow=hidden;points=[[0,0.5],[1,0.5]];portConstraint=eastwest;rotatable=0;whiteSpace=wrap;html=1;fontSize=16;" parent="10" vertex="1"><mxGeometry y="90" width="190" height="30" as="geometry"/></mxCell><mxCell id="136" value="admin: AppUser" style="text;strokeColor=none;fillColor=none;align=left;verticalAlign=middle;spacingLeft=4;spacingRight=4;overflow=hidden;points=[[0,0.5],[1,0.5]];portConstraint=eastwest;rotatable=0;whiteSpace=wrap;html=1;fontSize=16;" vertex="1" parent="10"><mxGeometry y="120" width="190" height="30" as="geometry"/></mxCell><mxCell id="137" value="jobOffers: List&amp;lt;JobOffer&amp;gt;" style="text;strokeColor=none;fillColor=none;align=left;verticalAlign=middle;spacingLeft=4;spacingRight=4;overflow=hidden;points=[[0,0.5],[1,0.5]];portConstraint=eastwest;rotatable=0;whiteSpace=wrap;html=1;fontSize=16;" vertex="1" parent="10"><mxGeometry y="150" width="190" height="30" as="geometry"/></mxCell><mxCell id="14" value="JobOffer" style="swimlane;fontStyle=0;childLayout=stackLayout;horizontal=1;startSize=30;horizontalStack=0;resizeParent=1;resizeParentMax=0;resizeLast=0;collapsible=1;marginBottom=0;whiteSpace=wrap;html=1;rounded=1;fillColor=#1ba1e2;fontColor=#ffffff;strokeColor=#006EAF;fontSize=16;" parent="1" vertex="1"><mxGeometry x="880" y="440" width="255" height="360" as="geometry"/></mxCell><mxCell id="15" value="id: String" style="text;strokeColor=none;fillColor=none;align=left;verticalAlign=middle;spacingLeft=4;spacingRight=4;overflow=hidden;points=[[0,0.5],[1,0.5]];portConstraint=eastwest;rotatable=0;whiteSpace=wrap;html=1;fontSize=16;" parent="14" vertex="1"><mxGeometry y="30" width="255" height="30" as="geometry"/></mxCell><mxCell id="16" value="title: String" style="text;strokeColor=none;fillColor=none;align=left;verticalAlign=middle;spacingLeft=4;spacingRight=4;overflow=hidden;points=[[0,0.5],[1,0.5]];portConstraint=eastwest;rotatable=0;whiteSpace=wrap;html=1;fontSize=16;" parent="14" vertex="1"><mxGeometry y="60" width="255" height="30" as="geometry"/></mxCell><mxCell id="17" value="description: String" style="text;strokeColor=none;fillColor=none;align=left;verticalAlign=middle;spacingLeft=4;spacingRight=4;overflow=hidden;points=[[0,0.5],[1,0.5]];portConstraint=eastwest;rotatable=0;whiteSpace=wrap;html=1;fontSize=16;" parent="14" vertex="1"><mxGeometry y="90" width="255" height="30" as="geometry"/></mxCell><mxCell id="28" value="location: String" style="text;strokeColor=none;fillColor=none;align=left;verticalAlign=middle;spacingLeft=4;spacingRight=4;overflow=hidden;points=[[0,0.5],[1,0.5]];portConstraint=eastwest;rotatable=0;whiteSpace=wrap;html=1;fontSize=16;" parent="14" vertex="1"><mxGeometry y="120" width="255" height="30" as="geometry"/></mxCell><mxCell id="138" value="skills: List&amp;lt;JobOfferSkill&amp;gt;" style="text;strokeColor=none;fillColor=none;align=left;verticalAlign=middle;spacingLeft=4;spacingRight=4;overflow=hidden;points=[[0,0.5],[1,0.5]];portConstraint=eastwest;rotatable=0;whiteSpace=wrap;html=1;fontSize=16;" vertex="1" parent="14"><mxGeometry y="150" width="255" height="30" as="geometry"/></mxCell><mxCell id="115" value="applications: List&amp;lt;JobApplication&amp;gt;" style="text;strokeColor=none;fillColor=none;align=left;verticalAlign=middle;spacingLeft=4;spacingRight=4;overflow=hidden;points=[[0,0.5],[1,0.5]];portConstraint=eastwest;rotatable=0;whiteSpace=wrap;html=1;fontSize=16;" vertex="1" parent="14"><mxGeometry y="180" width="255" height="30" as="geometry"/></mxCell><mxCell id="139" value="company: Company" style="text;strokeColor=none;fillColor=none;align=left;verticalAlign=middle;spacingLeft=4;spacingRight=4;overflow=hidden;points=[[0,0.5],[1,0.5]];portConstraint=eastwest;rotatable=0;whiteSpace=wrap;html=1;fontSize=16;" vertex="1" parent="14"><mxGeometry y="210" width="255" height="30" as="geometry"/></mxCell><mxCell id="140" value="status: JobOfferStatus" style="text;strokeColor=none;fillColor=none;align=left;verticalAlign=middle;spacingLeft=4;spacingRight=4;overflow=hidden;points=[[0,0.5],[1,0.5]];portConstraint=eastwest;rotatable=0;whiteSpace=wrap;html=1;fontSize=16;" vertex="1" parent="14"><mxGeometry y="240" width="255" height="30" as="geometry"/></mxCell><mxCell id="142" value="createdAt: LocalDateTime" style="text;strokeColor=none;fillColor=none;align=left;verticalAlign=middle;spacingLeft=4;spacingRight=4;overflow=hidden;points=[[0,0.5],[1,0.5]];portConstraint=eastwest;rotatable=0;whiteSpace=wrap;html=1;fontSize=16;" vertex="1" parent="14"><mxGeometry y="270" width="255" height="30" as="geometry"/></mxCell><mxCell id="143" value="updatedAt: LocalDateTime" style="text;strokeColor=none;fillColor=none;align=left;verticalAlign=middle;spacingLeft=4;spacingRight=4;overflow=hidden;points=[[0,0.5],[1,0.5]];portConstraint=eastwest;rotatable=0;whiteSpace=wrap;html=1;fontSize=16;" vertex="1" parent="14"><mxGeometry y="300" width="255" height="30" as="geometry"/></mxCell><mxCell id="141" value="closedAt: LocalDateTime" style="text;strokeColor=none;fillColor=none;align=left;verticalAlign=middle;spacingLeft=4;spacingRight=4;overflow=hidden;points=[[0,0.5],[1,0.5]];portConstraint=eastwest;rotatable=0;whiteSpace=wrap;html=1;fontSize=16;" vertex="1" parent="14"><mxGeometry y="330" width="255" height="30" as="geometry"/></mxCell><mxCell id="37" style="edgeStyle=none;rounded=1;html=1;exitX=0;exitY=0.5;exitDx=0;exitDy=0;entryX=1;entryY=0.5;entryDx=0;entryDy=0;shadow=0;labelBackgroundColor=default;labelBorderColor=none;strokeColor=#006EAF;strokeWidth=1;fontSize=16;fontColor=#F0F0F0;startArrow=none;startFill=0;endArrow=none;endFill=0;fillColor=#1ba1e2;" parent="1" source="35" target="116" edge="1"><mxGeometry relative="1" as="geometry"><Array as="points"><mxPoint x="360" y="385"/></Array></mxGeometry></mxCell><mxCell id="40" value="1" style="edgeLabel;html=1;align=center;verticalAlign=middle;resizable=0;points=[];fontSize=16;fontColor=default;labelBackgroundColor=none;" parent="37" vertex="1" connectable="0"><mxGeometry x="0.1079" y="3" relative="1" as="geometry"><mxPoint x="-33" y="83" as="offset"/></mxGeometry></mxCell><mxCell id="39" style="edgeStyle=none;rounded=1;html=1;exitX=1;exitY=0.5;exitDx=0;exitDy=0;entryX=0;entryY=0.5;entryDx=0;entryDy=0;shadow=0;labelBackgroundColor=default;labelBorderColor=none;strokeColor=#006EAF;strokeWidth=1;fontSize=16;fontColor=default;startArrow=none;startFill=0;endArrow=none;endFill=0;fillColor=#1ba1e2;" parent="1" source="97" target="7" edge="1"><mxGeometry relative="1" as="geometry"/></mxCell><mxCell id="35" value="has" style="rhombus;whiteSpace=wrap;html=1;rounded=0;shadow=0;glass=0;strokeColor=#006EAF;fontColor=#ffffff;fillColor=#1ba1e2;fontSize=16;" parent="1" vertex="1"><mxGeometry x="360" y="75" width="80" height="80" as="geometry"/></mxCell><mxCell id="43" style="edgeStyle=none;rounded=1;html=1;entryX=1;entryY=0.5;entryDx=0;entryDy=0;shadow=0;labelBackgroundColor=default;labelBorderColor=none;strokeColor=#006EAF;strokeWidth=1;fontSize=16;fontColor=default;startArrow=none;startFill=0;endArrow=none;endFill=0;fillColor=#1ba1e2;exitX=0.5;exitY=0;exitDx=0;exitDy=0;" parent="1" source="152" target="7" edge="1"><mxGeometry relative="1" as="geometry"><mxPoint x="1120" y="300" as="sourcePoint"/><Array as="points"><mxPoint x="1120" y="145"/></Array></mxGeometry></mxCell><mxCell id="46" value="n...1" style="edgeLabel;html=1;align=center;verticalAlign=middle;resizable=0;points=[];fontSize=16;fontColor=default;labelBackgroundColor=none;" parent="43" vertex="1" connectable="0"><mxGeometry x="0.2549" y="-3" relative="1" as="geometry"><mxPoint x="-8" y="162" as="offset"/></mxGeometry></mxCell><mxCell id="45" style="edgeStyle=none;rounded=1;html=1;exitX=0.5;exitY=1;exitDx=0;exitDy=0;entryX=0;entryY=0.5;entryDx=0;entryDy=0;shadow=0;labelBackgroundColor=default;labelBorderColor=none;strokeColor=#006EAF;strokeWidth=1;fontSize=16;fontColor=default;startArrow=none;startFill=0;endArrow=none;endFill=0;fillColor=#1ba1e2;" parent="1" source="42" target="138" edge="1"><mxGeometry relative="1" as="geometry"><Array as="points"><mxPoint x="840" y="605"/></Array></mxGeometry></mxCell><mxCell id="47" value="1" style="edgeLabel;html=1;align=center;verticalAlign=middle;resizable=0;points=[];fontSize=16;fontColor=default;labelBackgroundColor=none;" parent="45" vertex="1" connectable="0"><mxGeometry x="0.2364" y="2" relative="1" as="geometry"><mxPoint x="18" y="52" as="offset"/></mxGeometry></mxCell><mxCell id="42" value="needs" style="rhombus;whiteSpace=wrap;html=1;rounded=0;shadow=0;glass=0;strokeColor=#006EAF;fontSize=16;fontColor=#ffffff;fillColor=#1ba1e2;" parent="1" vertex="1"><mxGeometry x="800" y="289" width="80" height="80" as="geometry"/></mxCell><mxCell id="49" style="edgeStyle=none;rounded=1;html=1;exitX=0.5;exitY=0;exitDx=0;exitDy=0;entryX=0;entryY=0.5;entryDx=0;entryDy=0;shadow=0;labelBackgroundColor=default;labelBorderColor=none;strokeColor=#006EAF;strokeWidth=1;fontSize=16;fontColor=default;startArrow=none;startFill=0;endArrow=none;endFill=0;fillColor=#1ba1e2;" parent="1" source="48" target="139" edge="1"><mxGeometry relative="1" as="geometry"><Array as="points"><mxPoint x="490" y="665"/></Array></mxGeometry></mxCell><mxCell id="51" value="n...1" style="edgeLabel;html=1;align=center;verticalAlign=middle;resizable=0;points=[];fontSize=16;fontColor=default;labelBackgroundColor=none;" parent="49" vertex="1" connectable="0"><mxGeometry x="0.0051" y="4" relative="1" as="geometry"><mxPoint x="204" y="-11" as="offset"/></mxGeometry></mxCell><mxCell id="50" style="edgeStyle=none;rounded=1;html=1;exitX=0;exitY=0.5;exitDx=0;exitDy=0;entryX=1;entryY=0.5;entryDx=0;entryDy=0;shadow=0;labelBackgroundColor=default;labelBorderColor=none;strokeColor=#006EAF;strokeWidth=1;fontSize=16;fontColor=default;startArrow=none;startFill=0;endArrow=none;endFill=0;fillColor=#1ba1e2;" parent="1" source="48" target="137" edge="1"><mxGeometry relative="1" as="geometry"/></mxCell><mxCell id="52" value="1" style="edgeLabel;html=1;align=center;verticalAlign=middle;resizable=0;points=[];fontSize=16;fontColor=default;labelBackgroundColor=none;" parent="50" vertex="1" connectable="0"><mxGeometry x="0.0955" y="-2" relative="1" as="geometry"><mxPoint x="-57" y="-13" as="offset"/></mxGeometry></mxCell><mxCell id="48" value="offers" style="rhombus;whiteSpace=wrap;html=1;rounded=0;shadow=0;glass=0;strokeColor=#006EAF;fontSize=16;fontColor=#ffffff;fillColor=#1ba1e2;" parent="1" vertex="1"><mxGeometry x="450" y="725" width="80" height="80" as="geometry"/></mxCell><mxCell id="54" style="edgeStyle=none;html=1;exitX=0.5;exitY=0;exitDx=0;exitDy=0;shadow=0;labelBackgroundColor=default;labelBorderColor=none;strokeColor=#006EAF;strokeWidth=1;fontSize=16;fontColor=#F0F0F0;startArrow=none;startFill=0;endArrow=none;endFill=0;fillColor=#1ba1e2;rounded=1;entryX=0;entryY=0.5;entryDx=0;entryDy=0;" parent="1" source="53" target="23" edge="1"><mxGeometry relative="1" as="geometry"><Array as="points"><mxPoint x="10" y="480"/><mxPoint x="10" y="355"/></Array><mxPoint x="188" y="160" as="targetPoint"/></mxGeometry></mxCell><mxCell id="58" value="1" style="edgeLabel;html=1;align=center;verticalAlign=middle;resizable=0;points=[];fontSize=16;labelBackgroundColor=none;" parent="54" vertex="1" connectable="0"><mxGeometry x="0.5021" relative="1" as="geometry"><mxPoint x="18" y="-24" as="offset"/></mxGeometry></mxCell><mxCell id="53" value="controlls" style="rhombus;whiteSpace=wrap;html=1;rounded=0;shadow=0;glass=0;strokeColor=#006EAF;fontSize=16;fontColor=#ffffff;fillColor=#1ba1e2;" parent="1" vertex="1"><mxGeometry y="480" width="80" height="80" as="geometry"/></mxCell><mxCell id="63" style="edgeStyle=none;html=1;exitX=1;exitY=0.5;exitDx=0;exitDy=0;fontSize=16;endArrow=none;endFill=0;fillColor=#1ba1e2;strokeColor=#006EAF;entryX=0;entryY=0.5;entryDx=0;entryDy=0;" parent="1" source="61" target="115" edge="1"><mxGeometry relative="1" as="geometry"><Array as="points"><mxPoint x="810" y="635"/></Array><mxPoint x="880" y="640" as="targetPoint"/></mxGeometry></mxCell><mxCell id="64" value="1" style="edgeLabel;html=1;align=center;verticalAlign=middle;resizable=0;points=[];fontSize=16;labelBackgroundColor=none;" parent="63" vertex="1" connectable="0"><mxGeometry x="0.0901" y="3" relative="1" as="geometry"><mxPoint x="47" y="61" as="offset"/></mxGeometry></mxCell><mxCell id="61" value="applies" style="rhombus;whiteSpace=wrap;html=1;rounded=0;shadow=0;glass=0;strokeColor=#006EAF;fontColor=#ffffff;fillColor=#1ba1e2;fontSize=16;" parent="1" vertex="1"><mxGeometry x="730" y="345" width="80" height="80" as="geometry"/></mxCell><mxCell id="62" style="edgeStyle=none;html=1;exitX=1;exitY=0.5;exitDx=0;exitDy=0;entryX=0;entryY=0.5;entryDx=0;entryDy=0;fontSize=16;endArrow=none;endFill=0;fillColor=#1ba1e2;strokeColor=#006EAF;startArrow=none;" parent="1" source="121" target="61" edge="1"><mxGeometry relative="1" as="geometry"><Array as="points"/></mxGeometry></mxCell><mxCell id="75" value="JobApplication" style="swimlane;fontStyle=0;childLayout=stackLayout;horizontal=1;startSize=30;horizontalStack=0;resizeParent=1;resizeParentMax=0;resizeLast=0;collapsible=1;marginBottom=0;whiteSpace=wrap;html=1;rounded=1;swimlaneLine=1;glass=0;shadow=0;fillColor=#1ba1e2;strokeColor=#006EAF;swimlaneFillColor=none;align=center;fontColor=#ffffff;fontSize=16;" parent="1" vertex="1"><mxGeometry x="490" y="310" width="200" height="240" as="geometry"><mxRectangle x="190" y="100" width="70" height="30" as="alternateBounds"/></mxGeometry></mxCell><mxCell id="120" value="id: String" style="text;strokeColor=none;fillColor=none;align=left;verticalAlign=middle;spacingLeft=4;spacingRight=4;overflow=hidden;points=[[0,0.5],[1,0.5]];portConstraint=eastwest;rotatable=0;whiteSpace=wrap;html=1;fontSize=16;" vertex="1" parent="75"><mxGeometry y="30" width="200" height="30" as="geometry"/></mxCell><mxCell id="121" value="jobOffer: JobOffer" style="text;strokeColor=none;fillColor=none;align=left;verticalAlign=middle;spacingLeft=4;spacingRight=4;overflow=hidden;points=[[0,0.5],[1,0.5]];portConstraint=eastwest;rotatable=0;whiteSpace=wrap;html=1;fontSize=16;" vertex="1" parent="75"><mxGeometry y="60" width="200" height="30" as="geometry"/></mxCell><mxCell id="122" value="applicant: AppUser" style="text;strokeColor=none;fillColor=none;align=left;verticalAlign=middle;spacingLeft=4;spacingRight=4;overflow=hidden;points=[[0,0.5],[1,0.5]];portConstraint=eastwest;rotatable=0;whiteSpace=wrap;html=1;fontSize=16;" vertex="1" parent="75"><mxGeometry y="90" width="200" height="30" as="geometry"/></mxCell><mxCell id="123" value="status: ApplicationStatus" style="text;strokeColor=none;fillColor=none;align=left;verticalAlign=middle;spacingLeft=4;spacingRight=4;overflow=hidden;points=[[0,0.5],[1,0.5]];portConstraint=eastwest;rotatable=0;whiteSpace=wrap;html=1;fontSize=16;" vertex="1" parent="75"><mxGeometry y="120" width="200" height="30" as="geometry"/></mxCell><mxCell id="129" value="createdAt: LocalDateTime" style="text;strokeColor=none;fillColor=none;align=left;verticalAlign=middle;spacingLeft=4;spacingRight=4;overflow=hidden;points=[[0,0.5],[1,0.5]];portConstraint=eastwest;rotatable=0;whiteSpace=wrap;html=1;fontSize=16;" vertex="1" parent="75"><mxGeometry y="150" width="200" height="30" as="geometry"/></mxCell><mxCell id="131" value="updatedAt: LocalDateTime" style="text;strokeColor=none;fillColor=none;align=left;verticalAlign=middle;spacingLeft=4;spacingRight=4;overflow=hidden;points=[[0,0.5],[1,0.5]];portConstraint=eastwest;rotatable=0;whiteSpace=wrap;html=1;fontSize=16;" vertex="1" parent="75"><mxGeometry y="180" width="200" height="30" as="geometry"/></mxCell><mxCell id="130" value="answerMessage: String" style="text;strokeColor=none;fillColor=none;align=left;verticalAlign=middle;spacingLeft=4;spacingRight=4;overflow=hidden;points=[[0,0.5],[1,0.5]];portConstraint=eastwest;rotatable=0;whiteSpace=wrap;html=1;fontSize=16;" vertex="1" parent="75"><mxGeometry y="210" width="200" height="30" as="geometry"/></mxCell><mxCell id="85" value="" style="edgeStyle=none;html=1;exitX=1;exitY=0.5;exitDx=0;exitDy=0;entryX=0;entryY=0.5;entryDx=0;entryDy=0;fontSize=16;endArrow=none;endFill=0;fillColor=#1ba1e2;strokeColor=#006EAF;startArrow=none;" parent="1" source="132" target="122" edge="1"><mxGeometry relative="1" as="geometry"><Array as="points"/><mxPoint x="180" y="175" as="sourcePoint"/><mxPoint x="540" y="280" as="targetPoint"/></mxGeometry></mxCell><mxCell id="93" style="edgeStyle=none;rounded=1;html=1;exitX=0.5;exitY=1;exitDx=0;exitDy=0;entryX=0;entryY=0.5;entryDx=0;entryDy=0;shadow=0;labelBackgroundColor=default;labelBorderColor=none;strokeColor=#006EAF;strokeWidth=1;fontSize=16;fontColor=default;startArrow=none;startFill=0;endArrow=none;endFill=0;fillColor=#1ba1e2;" edge="1" parent="1" source="53" target="136"><mxGeometry relative="1" as="geometry"><mxPoint x="429.9999999999998" y="570" as="sourcePoint"/><mxPoint x="189.44000000000005" y="630" as="targetPoint"/><Array as="points"><mxPoint x="40" y="735"/></Array></mxGeometry></mxCell><mxCell id="94" value="1" style="edgeLabel;html=1;align=center;verticalAlign=middle;resizable=0;points=[];fontSize=16;fontColor=default;labelBackgroundColor=none;" vertex="1" connectable="0" parent="93"><mxGeometry x="0.0955" y="-2" relative="1" as="geometry"><mxPoint x="42" y="37" as="offset"/></mxGeometry></mxCell><mxCell id="87" value="AppUserSkill" style="swimlane;fontStyle=0;childLayout=stackLayout;horizontal=1;startSize=30;horizontalStack=0;resizeParent=1;resizeParentMax=0;resizeLast=0;collapsible=1;marginBottom=0;whiteSpace=wrap;html=1;rounded=1;swimlaneLine=1;glass=0;shadow=0;fillColor=#1ba1e2;strokeColor=#006EAF;swimlaneFillColor=none;align=center;fontColor=#ffffff;fontSize=16;" parent="1" vertex="1"><mxGeometry x="530" y="40" width="160" height="150" as="geometry"><mxRectangle x="190" y="100" width="70" height="30" as="alternateBounds"/></mxGeometry></mxCell><mxCell id="100" value="id: Long&lt;span style=&quot;white-space: pre; font-size: 16px;&quot;&gt;&lt;span style=&quot;white-space: pre; font-size: 16px;&quot;&gt;&#9;&lt;/span&gt;&lt;/span&gt;" style="text;strokeColor=none;fillColor=none;align=left;verticalAlign=middle;spacingLeft=4;spacingRight=4;overflow=hidden;points=[[0,0.5],[1,0.5]];portConstraint=eastwest;rotatable=0;whiteSpace=wrap;html=1;fontSize=16;" vertex="1" parent="87"><mxGeometry y="30" width="160" height="30" as="geometry"/></mxCell><mxCell id="101" value="appUser: AppUser" style="text;strokeColor=none;fillColor=none;align=left;verticalAlign=middle;spacingLeft=4;spacingRight=4;overflow=hidden;points=[[0,0.5],[1,0.5]];portConstraint=eastwest;rotatable=0;whiteSpace=wrap;html=1;fontSize=16;" vertex="1" parent="87"><mxGeometry y="60" width="160" height="30" as="geometry"/></mxCell><mxCell id="103" value="skill: Skill" style="text;strokeColor=none;fillColor=none;align=left;verticalAlign=middle;spacingLeft=4;spacingRight=4;overflow=hidden;points=[[0,0.5],[1,0.5]];portConstraint=eastwest;rotatable=0;whiteSpace=wrap;html=1;fontSize=16;" vertex="1" parent="87"><mxGeometry y="90" width="160" height="30" as="geometry"/></mxCell><mxCell id="105" value="level: SkillLevel" style="text;strokeColor=none;fillColor=none;align=left;verticalAlign=middle;spacingLeft=4;spacingRight=4;overflow=hidden;points=[[0,0.5],[1,0.5]];portConstraint=eastwest;rotatable=0;whiteSpace=wrap;html=1;fontSize=16;" vertex="1" parent="87"><mxGeometry y="120" width="160" height="30" as="geometry"/></mxCell><mxCell id="95" value="" style="edgeStyle=none;rounded=1;html=1;exitX=1;exitY=0.5;exitDx=0;exitDy=0;entryX=0;entryY=0.5;entryDx=0;entryDy=0;shadow=0;labelBackgroundColor=default;labelBorderColor=none;strokeColor=#006EAF;strokeWidth=1;fontSize=16;fontColor=default;startArrow=none;startFill=0;endArrow=none;endFill=0;fillColor=#1ba1e2;" edge="1" parent="1" source="35" target="101"><mxGeometry relative="1" as="geometry"><mxPoint x="454.0000000000002" y="85" as="sourcePoint"/><mxPoint x="940" y="80" as="targetPoint"/></mxGeometry></mxCell><mxCell id="96" value="1" style="edgeLabel;html=1;align=center;verticalAlign=middle;resizable=0;points=[];fontSize=16;fontColor=default;labelBackgroundColor=none;" vertex="1" connectable="0" parent="95"><mxGeometry x="-0.0933" y="-1" relative="1" as="geometry"><mxPoint x="399" y="14" as="offset"/></mxGeometry></mxCell><mxCell id="97" value="has" style="rhombus;whiteSpace=wrap;html=1;rounded=0;shadow=0;glass=0;strokeColor=#006EAF;fontColor=#ffffff;fillColor=#1ba1e2;fontSize=16;" vertex="1" parent="1"><mxGeometry x="780" y="105" width="80" height="80" as="geometry"/></mxCell><mxCell id="98" value="" style="edgeStyle=none;rounded=1;html=1;exitX=1;exitY=0.5;exitDx=0;exitDy=0;entryX=0;entryY=0.5;entryDx=0;entryDy=0;shadow=0;labelBackgroundColor=default;labelBorderColor=none;strokeColor=#006EAF;strokeWidth=1;fontSize=16;fontColor=default;startArrow=none;startFill=0;endArrow=none;endFill=0;fillColor=#1ba1e2;" edge="1" parent="1" source="103" target="97"><mxGeometry relative="1" as="geometry"><mxPoint x="680" y="85" as="sourcePoint"/><mxPoint x="940.0000000000002" y="80" as="targetPoint"/></mxGeometry></mxCell><mxCell id="102" value="n...1" style="edgeLabel;html=1;align=center;verticalAlign=middle;resizable=0;points=[];fontSize=16;fontColor=default;labelBackgroundColor=none;" vertex="1" connectable="0" parent="1"><mxGeometry x="510.0033333333333" y="100" as="geometry"/></mxCell><mxCell id="106" value="n...1" style="edgeLabel;html=1;align=center;verticalAlign=middle;resizable=0;points=[];fontSize=16;fontColor=default;labelBackgroundColor=none;" vertex="1" connectable="0" parent="1"><mxGeometry x="710.0033333333334" y="130" as="geometry"/></mxCell><mxCell id="88" value="JobOfferSkill" style="swimlane;fontStyle=0;childLayout=stackLayout;horizontal=1;startSize=30;horizontalStack=0;resizeParent=1;resizeParentMax=0;resizeLast=0;collapsible=1;marginBottom=0;whiteSpace=wrap;html=1;rounded=1;swimlaneLine=1;glass=0;shadow=0;fillColor=#1ba1e2;strokeColor=#006EAF;swimlaneFillColor=none;align=center;fontColor=#ffffff;fontSize=16;" parent="1" vertex="1"><mxGeometry x="890" y="214" width="160" height="150" as="geometry"><mxRectangle x="190" y="100" width="70" height="30" as="alternateBounds"/></mxGeometry></mxCell><mxCell id="112" value="id: Long" style="text;strokeColor=none;fillColor=none;align=left;verticalAlign=middle;spacingLeft=4;spacingRight=4;overflow=hidden;points=[[0,0.5],[1,0.5]];portConstraint=eastwest;rotatable=0;whiteSpace=wrap;html=1;fontSize=16;" vertex="1" parent="88"><mxGeometry y="30" width="160" height="30" as="geometry"/></mxCell><mxCell id="109" value="jobOffer: JobOffer" style="text;strokeColor=none;fillColor=none;align=left;verticalAlign=middle;spacingLeft=4;spacingRight=4;overflow=hidden;points=[[0,0.5],[1,0.5]];portConstraint=eastwest;rotatable=0;whiteSpace=wrap;html=1;fontSize=16;" vertex="1" parent="88"><mxGeometry y="60" width="160" height="30" as="geometry"/></mxCell><mxCell id="113" value="skill: Skill" style="text;strokeColor=none;fillColor=none;align=left;verticalAlign=middle;spacingLeft=4;spacingRight=4;overflow=hidden;points=[[0,0.5],[1,0.5]];portConstraint=eastwest;rotatable=0;whiteSpace=wrap;html=1;fontSize=16;" vertex="1" parent="88"><mxGeometry y="90" width="160" height="30" as="geometry"/></mxCell><mxCell id="114" value="level: SkillLevel" style="text;strokeColor=none;fillColor=none;align=left;verticalAlign=middle;spacingLeft=4;spacingRight=4;overflow=hidden;points=[[0,0.5],[1,0.5]];portConstraint=eastwest;rotatable=0;whiteSpace=wrap;html=1;fontSize=16;" vertex="1" parent="88"><mxGeometry y="120" width="160" height="30" as="geometry"/></mxCell><mxCell id="107" value="" style="edgeStyle=none;rounded=1;html=1;exitX=0.5;exitY=0;exitDx=0;exitDy=0;entryX=0;entryY=0.5;entryDx=0;entryDy=0;shadow=0;labelBackgroundColor=default;labelBorderColor=none;strokeColor=#006EAF;strokeWidth=1;fontSize=16;fontColor=default;startArrow=none;startFill=0;endArrow=none;endFill=0;fillColor=#1ba1e2;" edge="1" parent="1" source="42" target="109"><mxGeometry relative="1" as="geometry"><mxPoint x="1010" y="320" as="sourcePoint"/><mxPoint x="1080" y="115" as="targetPoint"/><Array as="points"/></mxGeometry></mxCell><mxCell id="132" value="has" style="rhombus;whiteSpace=wrap;html=1;rounded=0;shadow=0;glass=0;strokeColor=#006EAF;fontColor=#ffffff;fillColor=#1ba1e2;fontSize=16;" vertex="1" parent="1"><mxGeometry x="360" y="375" width="80" height="80" as="geometry"/></mxCell><mxCell id="133" value="" style="edgeStyle=none;html=1;exitX=1;exitY=0.5;exitDx=0;exitDy=0;entryX=0;entryY=0.5;entryDx=0;entryDy=0;fontSize=16;endArrow=none;endFill=0;fillColor=#1ba1e2;strokeColor=#006EAF;" edge="1" parent="1" source="117" target="132"><mxGeometry relative="1" as="geometry"><Array as="points"/><mxPoint x="320" y="415" as="sourcePoint"/><mxPoint x="470" y="415" as="targetPoint"/></mxGeometry></mxCell><mxCell id="134" value="1" style="edgeLabel;html=1;align=center;verticalAlign=middle;resizable=0;points=[];fontSize=16;labelBackgroundColor=none;" vertex="1" connectable="0" parent="133"><mxGeometry x="-0.7892" y="3" relative="1" as="geometry"><mxPoint x="6" y="-12" as="offset"/></mxGeometry></mxCell><mxCell id="135" value="n...1" style="edgeLabel;html=1;align=center;verticalAlign=middle;resizable=0;points=[];fontSize=16;labelBackgroundColor=none;" vertex="1" connectable="0" parent="1"><mxGeometry x="469.9957142857142" y="400" as="geometry"/></mxCell><mxCell id="144" value="n...1" style="edgeLabel;html=1;align=center;verticalAlign=middle;resizable=0;points=[];fontSize=16;labelBackgroundColor=none;" vertex="1" connectable="0" parent="1"><mxGeometry x="710" y="375.0012903225806" as="geometry"/></mxCell><mxCell id="145" value="n...1" style="edgeLabel;html=1;align=center;verticalAlign=middle;resizable=0;points=[];fontSize=16;fontColor=default;labelBackgroundColor=none;" vertex="1" connectable="0" parent="1"><mxGeometry x="870" y="279.99838709677414" as="geometry"/></mxCell><mxCell id="149" value="1" style="edgeLabel;html=1;align=center;verticalAlign=middle;resizable=0;points=[];fontSize=16;fontColor=default;labelBackgroundColor=none;" vertex="1" connectable="0" parent="1"><mxGeometry x="1050" y="154.99743676427926" as="geometry"><mxPoint y="2" as="offset"/></mxGeometry></mxCell><mxCell id="152" value="has" style="rhombus;whiteSpace=wrap;html=1;rounded=0;shadow=0;glass=0;strokeColor=#006EAF;fontColor=#ffffff;fillColor=#1ba1e2;fontSize=16;" vertex="1" parent="1"><mxGeometry x="1080" y="185" width="80" height="80" as="geometry"/></mxCell><mxCell id="153" value="" style="edgeStyle=none;rounded=1;html=1;entryX=0.5;entryY=1;entryDx=0;entryDy=0;shadow=0;labelBackgroundColor=default;labelBorderColor=none;strokeColor=#006EAF;strokeWidth=1;fontSize=16;fontColor=default;startArrow=none;startFill=0;endArrow=none;endFill=0;fillColor=#1ba1e2;exitX=1;exitY=0.5;exitDx=0;exitDy=0;" edge="1" parent="1" source="113" target="152"><mxGeometry relative="1" as="geometry"><mxPoint x="1050" y="319" as="sourcePoint"/><mxPoint x="1030" y="145" as="targetPoint"/><Array as="points"><mxPoint x="1120" y="320"/></Array></mxGeometry></mxCell></root></mxGraphModel></diagram><diagram id="dUoPm6ITwE6K2QpsW6jt" name="Anwendungsfalldiagramm">&#xa;        <mxGraphModel dx="545" dy="691" grid="1" gridSize="10" guides="1" tooltips="1" connect="1" arrows="1" fold="1" page="1" pageScale="1" pageWidth="827" pageHeight="583" math="0" shadow="0">&#xa;            <root>&#xa;                <mxCell id="0"/>&#xa;                <mxCell id="1" parent="0"/>&#xa;                <mxCell id="k3cmyMnzI7h3TMXhBnOE-11" style="edgeStyle=none;html=1;entryX=0;entryY=0.5;entryDx=0;entryDy=0;fillColor=#1ba1e2;strokeColor=#006EAF;" parent="1" target="k3cmyMnzI7h3TMXhBnOE-6" edge="1">&#xa;                    <mxGeometry relative="1" as="geometry">&#xa;                        <mxPoint x="150" y="220" as="sourcePoint"/>&#xa;                    </mxGeometry>&#xa;                </mxCell>&#xa;                <mxCell id="k3cmyMnzI7h3TMXhBnOE-1" value="Bewerber" style="shape=umlActor;verticalLabelPosition=bottom;verticalAlign=top;html=1;outlineConnect=0;fontSize=16;" parent="1" vertex="1">&#xa;                    <mxGeometry x="120" y="192" width="30" height="60" as="geometry"/>&#xa;                </mxCell>&#xa;                <mxCell id="k3cmyMnzI7h3TMXhBnOE-10" style="edgeStyle=none;html=1;entryX=0;entryY=0.5;entryDx=0;entryDy=0;fillColor=#1ba1e2;strokeColor=#006EAF;" parent="1" target="k3cmyMnzI7h3TMXhBnOE-8" edge="1">&#xa;                    <mxGeometry relative="1" as="geometry">&#xa;                        <mxPoint x="150" y="360" as="sourcePoint"/>&#xa;                    </mxGeometry>&#xa;                </mxCell>&#xa;                <mxCell id="k3cmyMnzI7h3TMXhBnOE-2" value="Unternehemen" style="shape=umlActor;verticalLabelPosition=bottom;verticalAlign=top;html=1;outlineConnect=0;fontSize=16;" parent="1" vertex="1">&#xa;                    <mxGeometry x="120" y="332" width="30" height="60" as="geometry"/>&#xa;                </mxCell>&#xa;                <mxCell id="k3cmyMnzI7h3TMXhBnOE-9" value="JobFinder" style="swimlane;whiteSpace=wrap;html=1;fillColor=#1ba1e2;fontColor=#ffffff;strokeColor=#006EAF;fontSize=20;startSize=27;" parent="1" vertex="1">&#xa;                    <mxGeometry x="200" y="43" width="580" height="497" as="geometry">&#xa;                        <mxRectangle x="200" y="43" width="80" height="30" as="alternateBounds"/>&#xa;                    </mxGeometry>&#xa;                </mxCell>&#xa;                <mxCell id="k3cmyMnzI7h3TMXhBnOE-5" value="Bewerben" style="ellipse;whiteSpace=wrap;html=1;fillColor=#1ba1e2;fontColor=#ffffff;strokeColor=#006EAF;fontSize=16;" parent="k3cmyMnzI7h3TMXhBnOE-9" vertex="1">&#xa;                    <mxGeometry x="380" y="97" width="120" height="80" as="geometry"/>&#xa;                </mxCell>&#xa;                <mxCell id="k3cmyMnzI7h3TMXhBnOE-12" style="edgeStyle=none;html=1;exitX=1;exitY=0.5;exitDx=0;exitDy=0;entryX=0;entryY=0.5;entryDx=0;entryDy=0;dashed=1;fillColor=#1ba1e2;strokeColor=#006EAF;" parent="k3cmyMnzI7h3TMXhBnOE-9" source="k3cmyMnzI7h3TMXhBnOE-6" target="k3cmyMnzI7h3TMXhBnOE-5" edge="1">&#xa;                    <mxGeometry relative="1" as="geometry"/>&#xa;                </mxCell>&#xa;                <mxCell id="k3cmyMnzI7h3TMXhBnOE-14" value="&amp;lt;&amp;lt;INCLUDES&amp;gt;&amp;gt;" style="edgeLabel;html=1;align=center;verticalAlign=middle;resizable=0;points=[];fontSize=16;" parent="k3cmyMnzI7h3TMXhBnOE-12" vertex="1" connectable="0">&#xa;                    <mxGeometry x="-0.21" relative="1" as="geometry">&#xa;                        <mxPoint x="21" y="-10" as="offset"/>&#xa;                    </mxGeometry>&#xa;                </mxCell>&#xa;                <mxCell id="k3cmyMnzI7h3TMXhBnOE-18" style="edgeStyle=none;html=1;exitX=1;exitY=1;exitDx=0;exitDy=0;entryX=0.5;entryY=0;entryDx=0;entryDy=0;dashed=1;fillColor=#1ba1e2;strokeColor=#006EAF;" parent="k3cmyMnzI7h3TMXhBnOE-9" source="k3cmyMnzI7h3TMXhBnOE-6" target="k3cmyMnzI7h3TMXhBnOE-15" edge="1">&#xa;                    <mxGeometry relative="1" as="geometry"/>&#xa;                </mxCell>&#xa;                <mxCell id="k3cmyMnzI7h3TMXhBnOE-21" value="&amp;lt;&amp;lt;INCLUDES&amp;gt;&amp;gt;" style="edgeLabel;html=1;align=center;verticalAlign=middle;resizable=0;points=[];fontSize=16;" parent="k3cmyMnzI7h3TMXhBnOE-18" vertex="1" connectable="0">&#xa;                    <mxGeometry x="-0.1865" y="-1" relative="1" as="geometry">&#xa;                        <mxPoint as="offset"/>&#xa;                    </mxGeometry>&#xa;                </mxCell>&#xa;                <mxCell id="k3cmyMnzI7h3TMXhBnOE-6" value="Neuen Job finden" style="ellipse;whiteSpace=wrap;html=1;fillColor=#1ba1e2;fontColor=#ffffff;strokeColor=#006EAF;fontSize=16;" parent="k3cmyMnzI7h3TMXhBnOE-9" vertex="1">&#xa;                    <mxGeometry x="60" y="97" width="120" height="80" as="geometry"/>&#xa;                </mxCell>&#xa;                <mxCell id="k3cmyMnzI7h3TMXhBnOE-7" value="Stellen veröffentlichen" style="ellipse;whiteSpace=wrap;html=1;fillColor=#1ba1e2;fontColor=#ffffff;strokeColor=#006EAF;fontSize=16;" parent="k3cmyMnzI7h3TMXhBnOE-9" vertex="1">&#xa;                    <mxGeometry x="380" y="317" width="120" height="80" as="geometry"/>&#xa;                </mxCell>&#xa;                <mxCell id="k3cmyMnzI7h3TMXhBnOE-13" value="&amp;lt;&amp;lt;INCLUDES&amp;gt;&amp;gt;" style="edgeStyle=none;html=1;exitX=1;exitY=0.5;exitDx=0;exitDy=0;entryX=0;entryY=0.5;entryDx=0;entryDy=0;dashed=1;fillColor=#1ba1e2;strokeColor=#006EAF;fontSize=16;" parent="k3cmyMnzI7h3TMXhBnOE-9" source="k3cmyMnzI7h3TMXhBnOE-8" target="k3cmyMnzI7h3TMXhBnOE-7" edge="1">&#xa;                    <mxGeometry y="10" relative="1" as="geometry">&#xa;                        <mxPoint as="offset"/>&#xa;                    </mxGeometry>&#xa;                </mxCell>&#xa;                <mxCell id="k3cmyMnzI7h3TMXhBnOE-19" style="edgeStyle=none;html=1;exitX=1;exitY=0;exitDx=0;exitDy=0;entryX=0.5;entryY=1;entryDx=0;entryDy=0;dashed=1;fillColor=#1ba1e2;strokeColor=#006EAF;" parent="k3cmyMnzI7h3TMXhBnOE-9" source="k3cmyMnzI7h3TMXhBnOE-8" target="k3cmyMnzI7h3TMXhBnOE-15" edge="1">&#xa;                    <mxGeometry relative="1" as="geometry"/>&#xa;                </mxCell>&#xa;                <mxCell id="k3cmyMnzI7h3TMXhBnOE-20" value="&amp;lt;&amp;lt;INCLUDES&amp;gt;&amp;gt;" style="edgeLabel;html=1;align=center;verticalAlign=middle;resizable=0;points=[];fontSize=16;" parent="k3cmyMnzI7h3TMXhBnOE-19" vertex="1" connectable="0">&#xa;                    <mxGeometry x="-0.2394" y="-4" relative="1" as="geometry">&#xa;                        <mxPoint x="8" y="-10" as="offset"/>&#xa;                    </mxGeometry>&#xa;                </mxCell>&#xa;                <mxCell id="k3cmyMnzI7h3TMXhBnOE-8" value="Bewerber finden" style="ellipse;whiteSpace=wrap;html=1;fillColor=#1ba1e2;fontColor=#ffffff;strokeColor=#006EAF;fontSize=16;" parent="k3cmyMnzI7h3TMXhBnOE-9" vertex="1">&#xa;                    <mxGeometry x="60" y="317" width="120" height="80" as="geometry"/>&#xa;                </mxCell>&#xa;                <mxCell id="k3cmyMnzI7h3TMXhBnOE-15" value="Profil Anlegen" style="ellipse;whiteSpace=wrap;html=1;fillColor=#1ba1e2;fontColor=#ffffff;strokeColor=#006EAF;fontSize=16;" parent="k3cmyMnzI7h3TMXhBnOE-9" vertex="1">&#xa;                    <mxGeometry x="230" y="209" width="120" height="80" as="geometry"/>&#xa;                </mxCell>&#xa;                <mxCell id="k3cmyMnzI7h3TMXhBnOE-24" style="edgeStyle=none;html=1;endArrow=none;endFill=0;endSize=12;startSize=12;startArrow=block;startFill=0;fillColor=#1ba1e2;strokeColor=#006EAF;" parent="1" edge="1">&#xa;                    <mxGeometry relative="1" as="geometry">&#xa;                        <mxPoint x="70" y="300" as="sourcePoint"/>&#xa;                        <mxPoint x="120" y="330" as="targetPoint"/>&#xa;                    </mxGeometry>&#xa;                </mxCell>&#xa;                <mxCell id="k3cmyMnzI7h3TMXhBnOE-25" style="edgeStyle=none;html=1;endArrow=none;endFill=0;endSize=12;startArrow=block;startFill=0;startSize=12;fillColor=#1ba1e2;strokeColor=#006EAF;" parent="1" edge="1">&#xa;                    <mxGeometry relative="1" as="geometry">&#xa;                        <mxPoint x="70" y="260" as="sourcePoint"/>&#xa;                        <mxPoint x="120" y="230" as="targetPoint"/>&#xa;                    </mxGeometry>&#xa;                </mxCell>&#xa;                <mxCell id="k3cmyMnzI7h3TMXhBnOE-26" style="edgeStyle=none;html=1;entryX=0;entryY=0.5;entryDx=0;entryDy=0;startArrow=none;startFill=0;endArrow=classic;endFill=1;startSize=12;endSize=6;fillColor=#1ba1e2;strokeColor=#006EAF;" parent="1" target="k3cmyMnzI7h3TMXhBnOE-15" edge="1">&#xa;                    <mxGeometry relative="1" as="geometry">&#xa;                        <mxPoint x="70" y="292" as="sourcePoint"/>&#xa;                    </mxGeometry>&#xa;                </mxCell>&#xa;                <mxCell id="k3cmyMnzI7h3TMXhBnOE-22" value="AppUser" style="shape=umlActor;verticalLabelPosition=bottom;verticalAlign=top;html=1;outlineConnect=0;fontSize=16;" parent="1" vertex="1">&#xa;                    <mxGeometry x="40" y="262" width="30" height="60" as="geometry"/>&#xa;                </mxCell>&#xa;            </root>&#xa;        </mxGraphModel>&#xa;    </diagram><diagram id="8Yi29Rau8atdquMD3AUG" name="Architecture">&#xa;        <mxGraphModel dx="1480" dy="1065" grid="0" gridSize="10" guides="1" tooltips="1" connect="1" arrows="1" fold="1" page="1" pageScale="1" pageWidth="1169" pageHeight="827" math="0" shadow="0">&#xa;            <root>&#xa;                <mxCell id="0"/>&#xa;                <mxCell id="1" parent="0"/>&#xa;                <mxCell id="9IScd2ze0FdV4ERSIdxr-10" value="&lt;font style=&quot;font-size: 24px;&quot;&gt;Spring-Boot MVC Web Architecture&lt;/font&gt;" style="swimlane;whiteSpace=wrap;html=1;startSize=40;fillColor=#1ba1e2;fontColor=#ffffff;strokeColor=#006EAF;" parent="1" vertex="1">&#xa;                    <mxGeometry x="40" y="40" width="1090" height="750" as="geometry"/>&#xa;                </mxCell>&#xa;                <mxCell id="9IScd2ze0FdV4ERSIdxr-22" style="edgeStyle=none;html=1;exitX=1;exitY=0.5;exitDx=0;exitDy=0;entryX=0;entryY=0.5;entryDx=0;entryDy=0;fontSize=16;startArrow=classic;startFill=1;endArrow=none;endFill=0;fillColor=#1ba1e2;strokeColor=#006EAF;" parent="9IScd2ze0FdV4ERSIdxr-10" source="9IScd2ze0FdV4ERSIdxr-11" target="9IScd2ze0FdV4ERSIdxr-17" edge="1">&#xa;                    <mxGeometry relative="1" as="geometry"/>&#xa;                </mxCell>&#xa;                <mxCell id="9IScd2ze0FdV4ERSIdxr-25" value="HTTP" style="edgeLabel;html=1;align=center;verticalAlign=middle;resizable=0;points=[];fontSize=16;" parent="9IScd2ze0FdV4ERSIdxr-22" vertex="1" connectable="0">&#xa;                    <mxGeometry x="-0.35" y="-1" relative="1" as="geometry">&#xa;                        <mxPoint x="18" y="-1" as="offset"/>&#xa;                    </mxGeometry>&#xa;                </mxCell>&#xa;                <mxCell id="9IScd2ze0FdV4ERSIdxr-11" value="Client&lt;br&gt;(Webbrowser)" style="rounded=0;whiteSpace=wrap;html=1;fontSize=16;fillColor=#1ba1e2;fontColor=#ffffff;strokeColor=#006EAF;" parent="9IScd2ze0FdV4ERSIdxr-10" vertex="1">&#xa;                    <mxGeometry x="40" y="80" width="120" height="630" as="geometry"/>&#xa;                </mxCell>&#xa;                <mxCell id="9IScd2ze0FdV4ERSIdxr-12" value="Spring-Boot" style="swimlane;whiteSpace=wrap;html=1;fontSize=20;startSize=30;fillColor=#1ba1e2;fontColor=#ffffff;strokeColor=#006EAF;" parent="9IScd2ze0FdV4ERSIdxr-10" vertex="1">&#xa;                    <mxGeometry x="270" y="80" width="770" height="400" as="geometry"/>&#xa;                </mxCell>&#xa;                <mxCell id="9IScd2ze0FdV4ERSIdxr-14" value="Model" style="rounded=0;whiteSpace=wrap;html=1;fontSize=16;fillColor=#1ba1e2;fontColor=#ffffff;strokeColor=#006EAF;" parent="9IScd2ze0FdV4ERSIdxr-12" vertex="1">&#xa;                    <mxGeometry x="610" y="270" width="120" height="90" as="geometry"/>&#xa;                </mxCell>&#xa;                <mxCell id="9IScd2ze0FdV4ERSIdxr-23" style="edgeStyle=none;html=1;exitX=0.5;exitY=0;exitDx=0;exitDy=0;entryX=0.5;entryY=1;entryDx=0;entryDy=0;fontSize=16;startArrow=classic;startFill=1;endArrow=none;endFill=0;fillColor=#1ba1e2;strokeColor=#006EAF;" parent="9IScd2ze0FdV4ERSIdxr-12" source="9IScd2ze0FdV4ERSIdxr-17" target="9IScd2ze0FdV4ERSIdxr-18" edge="1">&#xa;                    <mxGeometry relative="1" as="geometry"/>&#xa;                </mxCell>&#xa;                <mxCell id="9IScd2ze0FdV4ERSIdxr-17" value="View&lt;br&gt;(Thymeleaf)" style="rounded=0;whiteSpace=wrap;html=1;fontSize=16;fillColor=#1ba1e2;fontColor=#ffffff;strokeColor=#006EAF;" parent="9IScd2ze0FdV4ERSIdxr-12" vertex="1">&#xa;                    <mxGeometry x="50" y="270" width="120" height="90" as="geometry"/>&#xa;                </mxCell>&#xa;                <mxCell id="2whKRcGPwtzlNiBS7x6Z-3" style="edgeStyle=none;html=1;exitX=1;exitY=0.5;exitDx=0;exitDy=0;entryX=0;entryY=0.5;entryDx=0;entryDy=0;fontSize=16;startArrow=none;startFill=0;endArrow=classic;endFill=1;fillColor=#1ba1e2;strokeColor=#006EAF;" parent="9IScd2ze0FdV4ERSIdxr-12" source="9IScd2ze0FdV4ERSIdxr-16" target="9IScd2ze0FdV4ERSIdxr-14" edge="1">&#xa;                    <mxGeometry relative="1" as="geometry"/>&#xa;                </mxCell>&#xa;                <mxCell id="9IScd2ze0FdV4ERSIdxr-16" value="Repository" style="rounded=0;whiteSpace=wrap;html=1;fontSize=16;fillColor=#1ba1e2;fontColor=#ffffff;strokeColor=#006EAF;" parent="9IScd2ze0FdV4ERSIdxr-12" vertex="1">&#xa;                    <mxGeometry x="340" y="270" width="120" height="90" as="geometry"/>&#xa;                </mxCell>&#xa;                <mxCell id="9IScd2ze0FdV4ERSIdxr-30" style="edgeStyle=none;html=1;exitX=0.5;exitY=1;exitDx=0;exitDy=0;entryX=0.5;entryY=0;entryDx=0;entryDy=0;fontSize=16;startArrow=none;startFill=0;endArrow=classic;endFill=1;fillColor=#1ba1e2;strokeColor=#006EAF;" parent="9IScd2ze0FdV4ERSIdxr-12" source="9IScd2ze0FdV4ERSIdxr-15" target="9IScd2ze0FdV4ERSIdxr-16" edge="1">&#xa;                    <mxGeometry relative="1" as="geometry"/>&#xa;                </mxCell>&#xa;                <mxCell id="9IScd2ze0FdV4ERSIdxr-15" value="Service" style="rounded=0;whiteSpace=wrap;html=1;fontSize=16;fillColor=#1ba1e2;fontColor=#ffffff;strokeColor=#006EAF;" parent="9IScd2ze0FdV4ERSIdxr-12" vertex="1">&#xa;                    <mxGeometry x="340" y="70" width="120" height="90" as="geometry"/>&#xa;                </mxCell>&#xa;                <mxCell id="2whKRcGPwtzlNiBS7x6Z-2" style="edgeStyle=none;html=1;exitX=1;exitY=0.5;exitDx=0;exitDy=0;entryX=0;entryY=0.5;entryDx=0;entryDy=0;fontSize=16;startArrow=none;startFill=0;endArrow=classic;endFill=1;fillColor=#1ba1e2;strokeColor=#006EAF;" parent="9IScd2ze0FdV4ERSIdxr-12" source="9IScd2ze0FdV4ERSIdxr-18" target="9IScd2ze0FdV4ERSIdxr-15" edge="1">&#xa;                    <mxGeometry relative="1" as="geometry"/>&#xa;                </mxCell>&#xa;                <mxCell id="9IScd2ze0FdV4ERSIdxr-18" value="Controller" style="rounded=0;whiteSpace=wrap;html=1;fontSize=16;fillColor=#1ba1e2;fontColor=#ffffff;strokeColor=#006EAF;" parent="9IScd2ze0FdV4ERSIdxr-12" vertex="1">&#xa;                    <mxGeometry x="50" y="70" width="120" height="90" as="geometry"/>&#xa;                </mxCell>&#xa;                <mxCell id="9IScd2ze0FdV4ERSIdxr-29" style="edgeStyle=none;html=1;exitX=0;exitY=0.5;exitDx=0;exitDy=0;entryX=0.5;entryY=1;entryDx=0;entryDy=0;fontSize=16;startArrow=classic;startFill=1;endArrow=none;endFill=0;fillColor=#1ba1e2;strokeColor=#006EAF;" parent="9IScd2ze0FdV4ERSIdxr-10" source="9IScd2ze0FdV4ERSIdxr-13" target="9IScd2ze0FdV4ERSIdxr-16" edge="1">&#xa;                    <mxGeometry relative="1" as="geometry">&#xa;                        <Array as="points">&#xa;                            <mxPoint x="670" y="600"/>&#xa;                        </Array>&#xa;                    </mxGeometry>&#xa;                </mxCell>&#xa;                <mxCell id="9IScd2ze0FdV4ERSIdxr-13" value="DB&lt;br&gt;(MySQL)" style="shape=datastore;whiteSpace=wrap;html=1;fontSize=20;fillColor=#1ba1e2;fontColor=#ffffff;strokeColor=#006EAF;" parent="9IScd2ze0FdV4ERSIdxr-10" vertex="1">&#xa;                    <mxGeometry x="880" y="540" width="120" height="120" as="geometry"/>&#xa;                </mxCell>&#xa;                <mxCell id="9IScd2ze0FdV4ERSIdxr-21" style="edgeStyle=none;html=1;exitX=0;exitY=0.5;exitDx=0;exitDy=0;entryX=1.018;entryY=0.182;entryDx=0;entryDy=0;entryPerimeter=0;fontSize=16;startArrow=classic;startFill=1;endArrow=none;endFill=0;fillColor=#1ba1e2;strokeColor=#006EAF;" parent="9IScd2ze0FdV4ERSIdxr-10" source="9IScd2ze0FdV4ERSIdxr-18" target="9IScd2ze0FdV4ERSIdxr-11" edge="1">&#xa;                    <mxGeometry relative="1" as="geometry"/>&#xa;                </mxCell>&#xa;                <mxCell id="9IScd2ze0FdV4ERSIdxr-24" value="HTTP" style="edgeLabel;html=1;align=center;verticalAlign=middle;resizable=0;points=[];fontSize=16;" parent="9IScd2ze0FdV4ERSIdxr-21" vertex="1" connectable="0">&#xa;                    <mxGeometry x="0.1827" y="-3" relative="1" as="geometry">&#xa;                        <mxPoint as="offset"/>&#xa;                    </mxGeometry>&#xa;                </mxCell>&#xa;                <mxCell id="9IScd2ze0FdV4ERSIdxr-28" style="edgeStyle=none;html=1;exitX=0.5;exitY=1;exitDx=0;exitDy=0;entryX=0.5;entryY=0;entryDx=0;entryDy=0;fontSize=16;fillColor=#1ba1e2;strokeColor=#006EAF;" parent="9IScd2ze0FdV4ERSIdxr-10" source="9IScd2ze0FdV4ERSIdxr-14" target="9IScd2ze0FdV4ERSIdxr-13" edge="1">&#xa;                    <mxGeometry relative="1" as="geometry"/>&#xa;                </mxCell>&#xa;            </root>&#xa;        </mxGraphModel>&#xa;    </diagram></mxfile>